<svg width="1136" height="600" viewBox="0 0 1136 600" fill="none" xmlns="http://www.w3.org/2000/svg">
<g clip-path="url(#clip0_1_2270)">
<rect opacity="0.4" width="1136" height="600" fill="url(#paint0_radial_1_2270)"/>
<mask id="mask0_1_2270" style="mask-type:alpha" maskUnits="userSpaceOnUse" x="132" y="-66" width="872" height="732">
<rect x="132" y="-65.5" width="872" height="731" fill="url(#paint1_radial_1_2270)"/>
</mask>
<g mask="url(#mask0_1_2270)">
</g>
<g clip-path="url(#clip1_1_2270)">
<g opacity="0.7">
<path opacity="0.11" d="M360.358 483.231C360.903 482.878 361.057 482.15 360.704 481.606C360.351 481.061 359.623 480.907 359.079 481.26C358.535 481.613 358.38 482.341 358.733 482.885C359.086 483.429 359.814 483.584 360.358 483.231Z" fill="white"/>
<path d="M367.072 486.573C367.481 486.308 367.597 485.762 367.332 485.354C367.067 484.946 366.521 484.83 366.113 485.095C365.705 485.359 365.589 485.905 365.854 486.313C366.119 486.721 366.664 486.838 367.072 486.573Z" fill="white"/>
<path d="M376.62 465.679C377.028 465.414 377.144 464.868 376.879 464.46C376.614 464.052 376.069 463.936 375.661 464.201C375.252 464.465 375.136 465.011 375.401 465.419C375.666 465.827 376.212 465.944 376.62 465.679Z" fill="white"/>
<path d="M334.105 491.866C334.513 491.601 334.629 491.055 334.364 490.647C334.099 490.239 333.554 490.123 333.146 490.388C332.738 490.652 332.621 491.198 332.886 491.606C333.151 492.014 333.697 492.131 334.105 491.866Z" fill="white"/>
<path opacity="0.11" d="M317.39 519.515C317.934 519.162 318.089 518.435 317.736 517.89C317.383 517.346 316.655 517.191 316.111 517.544C315.566 517.897 315.411 518.625 315.765 519.169C316.118 519.714 316.846 519.869 317.39 519.515Z" fill="white"/>
<path d="M301 514.75C301.272 514.573 301.349 514.21 301.173 513.938C300.997 513.666 300.633 513.588 300.361 513.765C300.089 513.941 300.012 514.305 300.188 514.577C300.365 514.849 300.728 514.926 301 514.75Z" fill="white"/>
<path d="M371.343 503.403C371.615 503.227 371.693 502.863 371.516 502.591C371.34 502.319 370.976 502.242 370.704 502.418C370.432 502.595 370.355 502.958 370.531 503.23C370.708 503.502 371.071 503.58 371.343 503.403Z" fill="white"/>
<path d="M478.742 433.71C479.014 433.534 479.091 433.17 478.915 432.898C478.738 432.626 478.375 432.549 478.103 432.726C477.831 432.902 477.753 433.266 477.93 433.538C478.106 433.809 478.47 433.887 478.742 433.71Z" fill="white"/>
<path d="M515.171 372.26C515.443 372.084 515.52 371.72 515.344 371.449C515.168 371.177 514.804 371.099 514.532 371.276C514.26 371.452 514.183 371.816 514.359 372.088C514.536 372.36 514.899 372.437 515.171 372.26Z" fill="white"/>
<path d="M557.726 395.753C557.998 395.577 558.075 395.213 557.899 394.941C557.722 394.669 557.359 394.592 557.087 394.769C556.815 394.945 556.738 395.309 556.914 395.581C557.091 395.852 557.454 395.93 557.726 395.753Z" fill="white"/>
<path d="M199.304 597.547C199.576 597.371 199.653 597.007 199.477 596.735C199.3 596.463 198.937 596.386 198.665 596.562C198.393 596.739 198.316 597.102 198.492 597.374C198.669 597.646 199.032 597.724 199.304 597.547Z" fill="white"/>
<path opacity="0.11" d="M174.655 575.739C174.927 575.562 175.005 575.198 174.828 574.927C174.652 574.655 174.288 574.577 174.016 574.754C173.744 574.93 173.667 575.294 173.843 575.566C174.02 575.838 174.383 575.915 174.655 575.739Z" fill="white"/>
<path opacity="0.11" d="M160.828 600.816C161.1 600.639 161.178 600.276 161.001 600.004C160.825 599.732 160.461 599.655 160.189 599.831C159.917 600.008 159.84 600.371 160.016 600.643C160.193 600.915 160.556 600.992 160.828 600.816Z" fill="white"/>
<path opacity="0.11" d="M300.718 524.031C300.989 523.855 301.067 523.491 300.89 523.219C300.714 522.948 300.35 522.87 300.078 523.047C299.807 523.223 299.729 523.587 299.906 523.859C300.082 524.131 300.446 524.208 300.718 524.031Z" fill="white"/>
<path opacity="0.11" d="M381.875 521.778C382.147 521.601 382.225 521.238 382.048 520.966C381.872 520.694 381.508 520.617 381.236 520.793C380.964 520.969 380.887 521.333 381.063 521.605C381.24 521.877 381.603 521.954 381.875 521.778Z" fill="white"/>
<path opacity="0.11" d="M473.257 455.47C473.529 455.293 473.606 454.93 473.43 454.658C473.253 454.386 472.89 454.308 472.618 454.485C472.346 454.661 472.269 455.025 472.445 455.297C472.622 455.569 472.985 455.646 473.257 455.47Z" fill="white"/>
<path opacity="0.3" d="M213.976 570.524C214.248 570.348 214.325 569.984 214.149 569.712C213.972 569.44 213.609 569.363 213.337 569.539C213.065 569.716 212.987 570.079 213.164 570.351C213.34 570.623 213.704 570.701 213.976 570.524Z" fill="white"/>
<path d="M310.015 470.392C310.287 470.215 310.364 469.852 310.188 469.58C310.011 469.308 309.648 469.231 309.376 469.407C309.104 469.583 309.026 469.947 309.203 470.219C309.379 470.491 309.743 470.568 310.015 470.392Z" fill="white"/>
<path d="M385.241 420.175C385.513 419.999 385.591 419.635 385.414 419.363C385.238 419.091 384.874 419.014 384.602 419.19C384.33 419.367 384.253 419.73 384.43 420.002C384.606 420.274 384.97 420.352 385.241 420.175Z" fill="white"/>
<path d="M305.929 537.454C306.201 537.277 306.279 536.914 306.102 536.642C305.926 536.37 305.562 536.292 305.29 536.469C305.018 536.645 304.941 537.009 305.117 537.281C305.294 537.553 305.657 537.63 305.929 537.454Z" fill="white"/>
<path opacity="0.3" d="M271.445 559.834C271.717 559.658 271.794 559.294 271.618 559.022C271.441 558.75 271.078 558.673 270.806 558.849C270.534 559.026 270.456 559.389 270.633 559.661C270.809 559.933 271.173 560.011 271.445 559.834Z" fill="white"/>
<path opacity="0.11" d="M211.234 555.503C211.505 555.326 211.583 554.963 211.406 554.691C211.23 554.419 210.866 554.341 210.594 554.518C210.323 554.694 210.245 555.058 210.422 555.33C210.598 555.602 210.962 555.679 211.234 555.503Z" fill="white"/>
<path opacity="0.3" d="M326.561 476.46C326.833 476.284 326.911 475.92 326.734 475.648C326.558 475.376 326.194 475.299 325.922 475.475C325.65 475.652 325.573 476.015 325.749 476.287C325.926 476.559 326.289 476.637 326.561 476.46Z" fill="white"/>
<path opacity="0.3" d="M320.382 541.379C320.654 541.203 320.731 540.839 320.555 540.567C320.378 540.295 320.015 540.218 319.743 540.394C319.471 540.571 319.393 540.934 319.57 541.206C319.746 541.478 320.11 541.556 320.382 541.379Z" fill="white"/>
<path opacity="0.3" d="M263.968 584.988C264.24 584.811 264.317 584.448 264.141 584.176C263.964 583.904 263.601 583.826 263.329 584.003C263.057 584.179 262.98 584.543 263.156 584.815C263.333 585.087 263.696 585.164 263.968 584.988Z" fill="white"/>
<path opacity="0.3" d="M228.265 561.254C228.537 561.078 228.615 560.714 228.438 560.442C228.262 560.171 227.898 560.093 227.626 560.27C227.354 560.446 227.277 560.81 227.453 561.082C227.63 561.353 227.993 561.431 228.265 561.254Z" fill="white"/>
<path opacity="0.3" d="M533.718 360.926C533.99 360.75 534.067 360.386 533.891 360.115C533.715 359.843 533.351 359.765 533.079 359.942C532.807 360.118 532.73 360.482 532.906 360.754C533.083 361.026 533.446 361.103 533.718 360.926Z" fill="white"/>
<path opacity="0.11" d="M441.296 392.197C441.568 392.021 441.645 391.657 441.469 391.386C441.292 391.114 440.929 391.036 440.657 391.213C440.385 391.389 440.308 391.753 440.484 392.025C440.661 392.297 441.024 392.374 441.296 392.197Z" fill="white"/>
<path opacity="0.11" d="M534.164 390.739C534.436 390.562 534.514 390.198 534.337 389.927C534.161 389.655 533.797 389.577 533.525 389.754C533.253 389.93 533.176 390.294 533.352 390.566C533.529 390.838 533.892 390.915 534.164 390.739Z" fill="white"/>
<path opacity="0.3" d="M412.405 476.058C412.949 475.705 413.104 474.977 412.751 474.433C412.397 473.888 411.67 473.733 411.125 474.087C410.581 474.44 410.426 475.168 410.779 475.712C411.133 476.256 411.86 476.411 412.405 476.058Z" fill="white"/>
<path opacity="0.11" d="M431.882 442.417C432.427 442.063 432.582 441.336 432.228 440.791C431.875 440.247 431.147 440.092 430.603 440.445C430.059 440.799 429.904 441.526 430.257 442.071C430.61 442.615 431.338 442.77 431.882 442.417Z" fill="white"/>
<path d="M420.448 425.335C420.856 425.07 420.973 424.524 420.708 424.116C420.443 423.708 419.897 423.592 419.489 423.857C419.081 424.121 418.965 424.667 419.23 425.075C419.494 425.483 420.04 425.6 420.448 425.335Z" fill="white"/>
<path d="M420.027 499.12C420.435 498.855 420.551 498.309 420.286 497.901C420.021 497.493 419.476 497.377 419.068 497.642C418.659 497.907 418.543 498.452 418.808 498.86C419.073 499.268 419.619 499.385 420.027 499.12Z" fill="white"/>
<path d="M589.972 402.833C590.38 402.568 590.496 402.022 590.231 401.614C589.967 401.206 589.421 401.09 589.013 401.355C588.605 401.62 588.489 402.165 588.753 402.573C589.018 402.982 589.564 403.098 589.972 402.833Z" fill="white"/>
<path d="M264.815 601.94C265.224 601.675 265.34 601.13 265.075 600.722C264.81 600.314 264.264 600.197 263.856 600.462C263.448 600.727 263.332 601.273 263.597 601.681C263.862 602.089 264.407 602.205 264.815 601.94Z" fill="white"/>
<path d="M403.198 450.532C403.606 450.267 403.723 449.722 403.458 449.314C403.193 448.905 402.647 448.789 402.239 449.054C401.831 449.319 401.715 449.865 401.98 450.273C402.245 450.681 402.79 450.797 403.198 450.532Z" fill="white"/>
<path d="M341.136 542.614C341.544 542.349 341.66 541.803 341.395 541.395C341.13 540.987 340.585 540.871 340.177 541.136C339.768 541.401 339.652 541.946 339.917 542.354C340.182 542.762 340.728 542.879 341.136 542.614Z" fill="white"/>
<path d="M479.027 483.234C479.435 482.97 479.551 482.424 479.287 482.016C479.022 481.608 478.476 481.492 478.068 481.756C477.66 482.021 477.544 482.567 477.808 482.975C478.073 483.383 478.619 483.499 479.027 483.234Z" fill="white"/>
<path d="M587.831 365.015C588.239 364.75 588.355 364.205 588.09 363.797C587.825 363.389 587.28 363.272 586.872 363.537C586.463 363.802 586.347 364.348 586.612 364.756C586.877 365.164 587.423 365.28 587.831 365.015Z" fill="white"/>
<path d="M582.072 330.248C582.481 329.983 582.597 329.437 582.332 329.029C582.067 328.621 581.521 328.505 581.113 328.77C580.705 329.035 580.589 329.58 580.854 329.988C581.119 330.396 581.664 330.513 582.072 330.248Z" fill="white"/>
<path opacity="0.3" d="M461.413 399.451C461.957 399.098 462.112 398.37 461.759 397.825C461.405 397.281 460.678 397.126 460.133 397.479C459.589 397.833 459.434 398.56 459.787 399.105C460.141 399.649 460.868 399.804 461.413 399.451Z" fill="white"/>
<path d="M438.71 364.475C439.254 364.122 439.409 363.394 439.056 362.85C438.702 362.306 437.975 362.151 437.43 362.504C436.886 362.857 436.731 363.585 437.084 364.129C437.438 364.674 438.165 364.829 438.71 364.475Z" fill="white"/>
<path d="M493.816 393.825C494.224 393.56 494.34 393.014 494.075 392.606C493.81 392.198 493.264 392.082 492.856 392.347C492.448 392.611 492.332 393.157 492.597 393.565C492.862 393.973 493.407 394.09 493.816 393.825Z" fill="white"/>
<path opacity="0.3" d="M505.241 359.107C505.785 358.753 505.94 358.026 505.587 357.481C505.234 356.937 504.506 356.782 503.962 357.135C503.417 357.489 503.262 358.216 503.616 358.761C503.969 359.305 504.697 359.46 505.241 359.107Z" fill="white"/>
<path opacity="0.3" d="M576.71 362.434C577.255 362.08 577.41 361.353 577.056 360.808C576.703 360.264 575.975 360.109 575.431 360.462C574.887 360.816 574.732 361.543 575.085 362.088C575.438 362.632 576.166 362.787 576.71 362.434Z" fill="white"/>
<path opacity="0.3" d="M519.71 400.822C520.254 400.469 520.409 399.741 520.056 399.197C519.702 398.653 518.975 398.498 518.43 398.851C517.886 399.204 517.731 399.932 518.084 400.476C518.437 401.021 519.165 401.176 519.71 400.822Z" fill="white"/>
<path opacity="0.3" d="M242.374 592.702C242.918 592.348 243.073 591.621 242.72 591.076C242.366 590.532 241.639 590.377 241.094 590.73C240.55 591.084 240.395 591.811 240.748 592.356C241.102 592.9 241.829 593.055 242.374 592.702Z" fill="white"/>
<path opacity="0.3" d="M184.882 591.504C185.426 591.151 185.581 590.423 185.228 589.879C184.875 589.334 184.147 589.179 183.603 589.533C183.058 589.886 182.903 590.614 183.257 591.158C183.61 591.702 184.337 591.857 184.882 591.504Z" fill="white"/>
<path opacity="0.11" d="M546.92 360.762C547.465 360.409 547.62 359.681 547.266 359.137C546.913 358.593 546.186 358.438 545.641 358.791C545.097 359.144 544.942 359.872 545.295 360.416C545.648 360.961 546.376 361.116 546.92 360.762Z" fill="white"/>
<path opacity="0.3" d="M244.46 529.039C245.004 528.686 245.159 527.958 244.806 527.414C244.453 526.869 243.725 526.714 243.181 527.068C242.636 527.421 242.481 528.149 242.835 528.693C243.188 529.237 243.916 529.392 244.46 529.039Z" fill="white"/>
<path opacity="0.11" d="M224.765 527.818C225.31 527.465 225.464 526.737 225.111 526.193C224.758 525.649 224.03 525.494 223.486 525.847C222.942 526.2 222.787 526.928 223.14 527.472C223.493 528.017 224.221 528.172 224.765 527.818Z" fill="white"/>
<path opacity="0.3" d="M241.287 561.903C241.832 561.55 241.987 560.822 241.633 560.278C241.28 559.734 240.553 559.579 240.008 559.932C239.464 560.285 239.309 561.013 239.662 561.557C240.015 562.102 240.743 562.257 241.287 561.903Z" fill="white"/>
<path d="M271.752 541.431C272.161 541.166 272.277 540.62 272.012 540.212C271.747 539.804 271.201 539.688 270.793 539.953C270.385 540.218 270.269 540.763 270.534 541.171C270.799 541.58 271.344 541.696 271.752 541.431Z" fill="white"/>
<path opacity="0.11" d="M433.092 222.233C433.637 221.88 433.792 221.152 433.438 220.608C433.085 220.063 432.357 219.908 431.813 220.261C431.269 220.615 431.114 221.342 431.467 221.887C431.82 222.431 432.548 222.586 433.092 222.233Z" fill="white"/>
<path d="M439.808 225.575C440.216 225.31 440.332 224.765 440.068 224.356C439.803 223.948 439.257 223.832 438.849 224.097C438.441 224.362 438.325 224.908 438.589 225.316C438.854 225.724 439.4 225.84 439.808 225.575Z" fill="white"/>
<path d="M449.355 204.681C449.763 204.416 449.879 203.87 449.614 203.462C449.349 203.054 448.804 202.938 448.396 203.203C447.987 203.467 447.871 204.013 448.136 204.421C448.401 204.829 448.947 204.945 449.355 204.681Z" fill="white"/>
<path d="M406.839 230.868C407.247 230.603 407.363 230.057 407.098 229.649C406.833 229.241 406.288 229.125 405.88 229.39C405.471 229.655 405.355 230.2 405.62 230.608C405.885 231.017 406.431 231.133 406.839 230.868Z" fill="white"/>
<path opacity="0.11" d="M390.124 258.517C390.669 258.163 390.824 257.436 390.47 256.891C390.117 256.347 389.389 256.192 388.845 256.545C388.301 256.899 388.146 257.626 388.499 258.171C388.852 258.715 389.58 258.87 390.124 258.517Z" fill="white"/>
<path d="M373.734 253.753C374.006 253.576 374.083 253.213 373.907 252.941C373.73 252.669 373.367 252.592 373.095 252.768C372.823 252.945 372.746 253.308 372.922 253.58C373.099 253.852 373.462 253.929 373.734 253.753Z" fill="white"/>
<path d="M444.077 242.406C444.349 242.229 444.427 241.866 444.25 241.594C444.074 241.322 443.71 241.245 443.438 241.421C443.166 241.598 443.089 241.961 443.265 242.233C443.442 242.505 443.805 242.582 444.077 242.406Z" fill="white"/>
<path d="M551.476 172.714C551.748 172.537 551.825 172.174 551.649 171.902C551.472 171.63 551.109 171.552 550.837 171.729C550.565 171.905 550.487 172.269 550.664 172.541C550.84 172.813 551.204 172.89 551.476 172.714Z" fill="white"/>
<path d="M587.906 111.263C588.178 111.086 588.255 110.723 588.079 110.451C587.902 110.179 587.539 110.102 587.267 110.278C586.995 110.455 586.917 110.818 587.094 111.09C587.27 111.362 587.634 111.439 587.906 111.263Z" fill="white"/>
<path d="M630.46 134.758C630.732 134.582 630.809 134.218 630.633 133.946C630.456 133.674 630.093 133.597 629.821 133.773C629.549 133.95 629.471 134.313 629.648 134.585C629.824 134.857 630.188 134.935 630.46 134.758Z" fill="white"/>
<path d="M272.039 336.549C272.311 336.373 272.388 336.009 272.212 335.737C272.035 335.465 271.672 335.388 271.4 335.564C271.128 335.741 271.051 336.104 271.227 336.376C271.404 336.648 271.767 336.726 272.039 336.549Z" fill="white"/>
<path opacity="0.11" d="M247.39 314.741C247.662 314.564 247.739 314.201 247.563 313.929C247.386 313.657 247.023 313.58 246.751 313.756C246.479 313.933 246.401 314.296 246.578 314.568C246.754 314.84 247.118 314.917 247.39 314.741Z" fill="white"/>
<path opacity="0.11" d="M233.562 339.818C233.833 339.642 233.911 339.278 233.734 339.006C233.558 338.734 233.194 338.657 232.922 338.833C232.651 339.01 232.573 339.373 232.75 339.645C232.926 339.917 233.29 339.995 233.562 339.818Z" fill="white"/>
<path opacity="0.11" d="M269 358.827C269.271 358.651 269.349 358.287 269.172 358.015C268.996 357.743 268.632 357.666 268.36 357.842C268.088 358.019 268.011 358.382 268.188 358.654C268.364 358.926 268.728 359.004 269 358.827Z" fill="white"/>
<path opacity="0.11" d="M373.453 263.033C373.725 262.857 373.802 262.493 373.625 262.221C373.449 261.949 373.086 261.872 372.814 262.048C372.542 262.225 372.464 262.588 372.641 262.86C372.817 263.132 373.181 263.21 373.453 263.033Z" fill="white"/>
<path opacity="0.11" d="M454.609 260.78C454.881 260.603 454.958 260.24 454.782 259.968C454.605 259.696 454.242 259.619 453.97 259.795C453.698 259.972 453.62 260.335 453.797 260.607C453.973 260.879 454.337 260.956 454.609 260.78Z" fill="white"/>
<path opacity="0.11" d="M545.992 194.471C546.264 194.295 546.341 193.931 546.165 193.659C545.988 193.388 545.625 193.31 545.353 193.487C545.081 193.663 545.003 194.027 545.18 194.299C545.356 194.571 545.72 194.648 545.992 194.471Z" fill="white"/>
<path opacity="0.3" d="M286.71 309.526C286.982 309.35 287.059 308.986 286.882 308.714C286.706 308.442 286.342 308.365 286.071 308.541C285.799 308.718 285.721 309.081 285.898 309.353C286.074 309.625 286.438 309.703 286.71 309.526Z" fill="white"/>
<path d="M382.75 209.394C383.022 209.217 383.099 208.854 382.923 208.582C382.746 208.31 382.383 208.232 382.111 208.409C381.839 208.585 381.762 208.949 381.938 209.221C382.115 209.493 382.478 209.57 382.75 209.394Z" fill="white"/>
<path d="M457.976 159.176C458.248 159 458.325 158.636 458.149 158.364C457.972 158.092 457.609 158.015 457.337 158.191C457.065 158.368 456.987 158.731 457.164 159.003C457.34 159.275 457.704 159.353 457.976 159.176Z" fill="white"/>
<path d="M378.664 276.456C378.936 276.28 379.013 275.916 378.837 275.644C378.66 275.372 378.297 275.295 378.025 275.471C377.753 275.648 377.676 276.011 377.852 276.283C378.028 276.555 378.392 276.633 378.664 276.456Z" fill="white"/>
<path opacity="0.3" d="M344.179 298.835C344.451 298.659 344.528 298.295 344.352 298.023C344.175 297.751 343.812 297.674 343.54 297.85C343.268 298.027 343.191 298.39 343.367 298.662C343.544 298.934 343.907 299.012 344.179 298.835Z" fill="white"/>
<path opacity="0.11" d="M283.967 294.506C284.239 294.329 284.317 293.966 284.14 293.694C283.964 293.422 283.6 293.344 283.328 293.521C283.056 293.697 282.979 294.061 283.155 294.333C283.332 294.605 283.695 294.682 283.967 294.506Z" fill="white"/>
<path opacity="0.3" d="M399.296 215.461C399.568 215.285 399.645 214.921 399.469 214.649C399.292 214.378 398.929 214.3 398.657 214.477C398.385 214.653 398.307 215.017 398.484 215.289C398.66 215.56 399.024 215.638 399.296 215.461Z" fill="white"/>
<path opacity="0.3" d="M393.117 280.381C393.389 280.204 393.466 279.841 393.29 279.569C393.113 279.297 392.75 279.22 392.478 279.396C392.206 279.573 392.128 279.936 392.305 280.208C392.481 280.48 392.845 280.557 393.117 280.381Z" fill="white"/>
<path opacity="0.3" d="M336.703 323.99C336.975 323.814 337.052 323.45 336.875 323.178C336.699 322.906 336.336 322.829 336.064 323.005C335.792 323.182 335.714 323.545 335.891 323.817C336.067 324.089 336.431 324.167 336.703 323.99Z" fill="white"/>
<path opacity="0.3" d="M300.999 300.257C301.271 300.081 301.349 299.717 301.172 299.445C300.996 299.173 300.632 299.096 300.36 299.272C300.088 299.449 300.011 299.812 300.187 300.084C300.364 300.356 300.727 300.434 300.999 300.257Z" fill="white"/>
<path opacity="0.3" d="M606.453 99.9284C606.725 99.7519 606.802 99.3884 606.626 99.1165C606.449 98.8445 606.086 98.7671 605.814 98.9436C605.542 99.1201 605.464 99.4836 605.641 99.7556C605.817 100.028 606.181 100.105 606.453 99.9284Z" fill="white"/>
<path opacity="0.11" d="M514.031 131.201C514.303 131.024 514.38 130.661 514.204 130.389C514.027 130.117 513.664 130.04 513.392 130.216C513.12 130.393 513.042 130.756 513.219 131.028C513.395 131.3 513.759 131.377 514.031 131.201Z" fill="white"/>
<path opacity="0.11" d="M606.898 129.741C607.17 129.565 607.247 129.201 607.071 128.929C606.894 128.658 606.531 128.58 606.259 128.757C605.987 128.933 605.909 129.297 606.086 129.569C606.262 129.841 606.626 129.918 606.898 129.741Z" fill="white"/>
<path opacity="0.3" d="M485.14 215.06C485.684 214.707 485.839 213.979 485.486 213.435C485.133 212.891 484.405 212.736 483.861 213.089C483.316 213.442 483.161 214.17 483.515 214.714C483.868 215.259 484.595 215.414 485.14 215.06Z" fill="white"/>
<path opacity="0.11" d="M504.616 181.419C505.16 181.066 505.315 180.338 504.962 179.794C504.608 179.249 503.881 179.094 503.336 179.448C502.792 179.801 502.637 180.529 502.99 181.073C503.344 181.617 504.071 181.772 504.616 181.419Z" fill="white"/>
<path d="M493.183 164.336C493.591 164.071 493.707 163.526 493.442 163.118C493.177 162.71 492.632 162.593 492.224 162.858C491.815 163.123 491.699 163.669 491.964 164.077C492.229 164.485 492.775 164.601 493.183 164.336Z" fill="white"/>
<path d="M492.761 238.121C493.169 237.856 493.285 237.311 493.02 236.902C492.756 236.494 492.21 236.378 491.802 236.643C491.394 236.908 491.278 237.453 491.542 237.862C491.807 238.27 492.353 238.386 492.761 238.121Z" fill="white"/>
<path d="M662.706 141.835C663.114 141.57 663.23 141.025 662.965 140.617C662.7 140.209 662.155 140.092 661.747 140.357C661.339 140.622 661.222 141.168 661.487 141.576C661.752 141.984 662.298 142.1 662.706 141.835Z" fill="white"/>
<path d="M337.55 340.943C337.958 340.678 338.074 340.132 337.809 339.724C337.544 339.316 336.999 339.2 336.591 339.465C336.182 339.73 336.066 340.275 336.331 340.683C336.596 341.092 337.142 341.208 337.55 340.943Z" fill="white"/>
<path d="M264.683 372.131C265.091 371.866 265.207 371.32 264.942 370.912C264.677 370.504 264.132 370.388 263.724 370.652C263.316 370.917 263.199 371.463 263.464 371.871C263.729 372.279 264.275 372.395 264.683 372.131Z" fill="white"/>
<path d="M243.518 357.861C243.927 357.596 244.043 357.05 243.778 356.642C243.513 356.234 242.967 356.118 242.559 356.382C242.151 356.647 242.035 357.193 242.3 357.601C242.565 358.009 243.11 358.125 243.518 357.861Z" fill="white"/>
<path d="M475.933 189.535C476.341 189.27 476.457 188.724 476.192 188.316C475.927 187.908 475.382 187.792 474.974 188.057C474.565 188.322 474.449 188.867 474.714 189.275C474.979 189.684 475.525 189.8 475.933 189.535Z" fill="white"/>
<path d="M413.87 281.615C414.278 281.35 414.394 280.804 414.13 280.396C413.865 279.988 413.319 279.872 412.911 280.137C412.503 280.402 412.387 280.947 412.651 281.355C412.916 281.764 413.462 281.88 413.87 281.615Z" fill="white"/>
<path d="M551.761 222.236C552.169 221.971 552.285 221.425 552.02 221.017C551.755 220.609 551.21 220.493 550.802 220.758C550.394 221.023 550.277 221.568 550.542 221.976C550.807 222.384 551.353 222.501 551.761 222.236Z" fill="white"/>
<path d="M660.566 104.017C660.974 103.752 661.09 103.207 660.825 102.798C660.56 102.39 660.015 102.274 659.607 102.539C659.198 102.804 659.082 103.349 659.347 103.758C659.612 104.166 660.158 104.282 660.566 104.017Z" fill="white"/>
<path d="M654.808 69.2514C655.216 68.9865 655.332 68.4409 655.067 68.0328C654.802 67.6246 654.257 67.5085 653.849 67.7733C653.44 68.0382 653.324 68.5838 653.589 68.9919C653.854 69.4001 654.4 69.5163 654.808 69.2514Z" fill="white"/>
<path opacity="0.3" d="M534.147 138.452C534.691 138.099 534.846 137.371 534.493 136.827C534.139 136.283 533.412 136.128 532.867 136.481C532.323 136.834 532.168 137.562 532.521 138.106C532.875 138.651 533.602 138.806 534.147 138.452Z" fill="white"/>
<path d="M511.444 103.478C511.988 103.124 512.143 102.397 511.79 101.852C511.436 101.308 510.709 101.153 510.164 101.506C509.62 101.86 509.465 102.587 509.818 103.132C510.172 103.676 510.899 103.831 511.444 103.478Z" fill="white"/>
<path d="M566.55 132.827C566.958 132.562 567.074 132.017 566.809 131.608C566.544 131.2 565.999 131.084 565.591 131.349C565.182 131.614 565.066 132.159 565.331 132.568C565.596 132.976 566.142 133.092 566.55 132.827Z" fill="white"/>
<path opacity="0.3" d="M577.976 98.1085C578.52 97.7552 578.675 97.0276 578.322 96.4832C577.969 95.9389 577.241 95.784 576.697 96.1372C576.152 96.4905 575.997 97.2181 576.351 97.7625C576.704 98.3069 577.431 98.4618 577.976 98.1085Z" fill="white"/>
<path opacity="0.3" d="M649.444 101.436C649.988 101.083 650.143 100.355 649.79 99.8109C649.437 99.2665 648.709 99.1116 648.165 99.4649C647.62 99.8181 647.465 100.546 647.819 101.09C648.172 101.634 648.9 101.789 649.444 101.436Z" fill="white"/>
<path opacity="0.3" d="M592.444 139.825C592.988 139.472 593.143 138.744 592.79 138.2C592.437 137.655 591.709 137.5 591.165 137.854C590.62 138.207 590.465 138.934 590.819 139.479C591.172 140.023 591.9 140.178 592.444 139.825Z" fill="white"/>
<path opacity="0.3" d="M315.108 331.704C315.652 331.351 315.807 330.623 315.454 330.079C315.101 329.534 314.373 329.379 313.829 329.733C313.284 330.086 313.129 330.814 313.483 331.358C313.836 331.902 314.564 332.057 315.108 331.704Z" fill="white"/>
<path opacity="0.3" d="M257.616 330.507C258.16 330.154 258.315 329.426 257.962 328.882C257.608 328.338 256.881 328.183 256.336 328.536C255.792 328.889 255.637 329.617 255.99 330.161C256.344 330.706 257.071 330.86 257.616 330.507Z" fill="white"/>
<path opacity="0.11" d="M619.655 99.7647C620.199 99.4115 620.354 98.6838 620.001 98.1395C619.648 97.5951 618.92 97.4402 618.376 97.7935C617.831 98.1467 617.676 98.8744 618.03 99.4187C618.383 99.9631 619.111 100.118 619.655 99.7647Z" fill="white"/>
<path opacity="0.3" d="M317.194 268.042C317.738 267.689 317.893 266.961 317.54 266.417C317.186 265.872 316.459 265.718 315.914 266.071C315.37 266.424 315.215 267.152 315.568 267.696C315.922 268.24 316.649 268.395 317.194 268.042Z" fill="white"/>
<path opacity="0.11" d="M297.499 266.819C298.043 266.466 298.198 265.739 297.845 265.194C297.491 264.65 296.764 264.495 296.219 264.848C295.675 265.201 295.52 265.929 295.873 266.473C296.227 267.018 296.954 267.173 297.499 266.819Z" fill="white"/>
<path opacity="0.3" d="M314.022 300.905C314.567 300.552 314.722 299.824 314.368 299.28C314.015 298.736 313.287 298.581 312.743 298.934C312.199 299.287 312.044 300.015 312.397 300.559C312.75 301.104 313.478 301.259 314.022 300.905Z" fill="white"/>
<path d="M344.488 280.433C344.896 280.168 345.012 279.622 344.747 279.214C344.482 278.806 343.936 278.69 343.528 278.954C343.12 279.219 343.004 279.765 343.269 280.173C343.534 280.581 344.079 280.697 344.488 280.433Z" fill="white"/>
<path opacity="0.11" d="M742.226 131.314C742.77 130.96 742.925 130.233 742.572 129.688C742.219 129.144 741.491 128.989 740.947 129.342C740.402 129.696 740.247 130.423 740.601 130.968C740.954 131.512 741.682 131.667 742.226 131.314Z" fill="white"/>
<path d="M748.941 134.655C749.349 134.39 749.465 133.845 749.2 133.437C748.935 133.028 748.39 132.912 747.982 133.177C747.574 133.442 747.457 133.988 747.722 134.396C747.987 134.804 748.533 134.92 748.941 134.655Z" fill="white"/>
<path d="M758.488 113.761C758.896 113.496 759.012 112.951 758.747 112.543C758.482 112.134 757.937 112.018 757.529 112.283C757.121 112.548 757.004 113.094 757.269 113.502C757.534 113.91 758.08 114.026 758.488 113.761Z" fill="white"/>
<path d="M715.972 139.948C716.38 139.683 716.496 139.137 716.231 138.729C715.966 138.321 715.421 138.205 715.013 138.47C714.604 138.735 714.488 139.28 714.753 139.688C715.018 140.096 715.564 140.213 715.972 139.948Z" fill="white"/>
<path opacity="0.11" d="M699.257 167.597C699.801 167.243 699.956 166.516 699.603 165.971C699.25 165.427 698.522 165.272 697.978 165.625C697.433 165.979 697.278 166.706 697.632 167.251C697.985 167.795 698.712 167.95 699.257 167.597Z" fill="white"/>
<path d="M682.867 162.833C683.139 162.656 683.216 162.293 683.04 162.021C682.863 161.749 682.5 161.671 682.228 161.848C681.956 162.024 681.878 162.388 682.055 162.66C682.231 162.932 682.595 163.009 682.867 162.833Z" fill="white"/>
<path d="M753.21 151.486C753.482 151.31 753.559 150.946 753.383 150.674C753.206 150.402 752.843 150.325 752.571 150.501C752.299 150.678 752.221 151.042 752.398 151.313C752.574 151.585 752.938 151.663 753.21 151.486Z" fill="white"/>
<path d="M860.609 81.7932C860.881 81.6167 860.958 81.2532 860.782 80.9813C860.605 80.7093 860.242 80.6319 859.97 80.8084C859.698 80.9849 859.62 81.3484 859.797 81.6203C859.973 81.8923 860.337 81.9697 860.609 81.7932Z" fill="white"/>
<path d="M897.039 20.343C897.311 20.1665 897.388 19.803 897.212 19.531C897.035 19.2591 896.672 19.1817 896.4 19.3582C896.128 19.5347 896.05 19.8982 896.227 20.1701C896.403 20.4421 896.767 20.5195 897.039 20.343Z" fill="white"/>
<path d="M939.593 43.8366C939.865 43.6601 939.942 43.2966 939.766 43.0247C939.589 42.7527 939.226 42.6753 938.954 42.8518C938.682 43.0283 938.604 43.3918 938.781 43.6638C938.957 43.9357 939.321 44.0131 939.593 43.8366Z" fill="white"/>
<path d="M581.171 245.629C581.443 245.453 581.52 245.089 581.344 244.817C581.167 244.545 580.804 244.468 580.532 244.644C580.26 244.821 580.182 245.184 580.359 245.456C580.535 245.728 580.899 245.806 581.171 245.629Z" fill="white"/>
<path opacity="0.11" d="M556.523 223.821C556.795 223.645 556.872 223.281 556.696 223.01C556.519 222.738 556.156 222.66 555.884 222.837C555.612 223.013 555.534 223.377 555.711 223.649C555.887 223.921 556.251 223.998 556.523 223.821Z" fill="white"/>
<path opacity="0.11" d="M542.695 248.899C542.967 248.722 543.045 248.359 542.868 248.087C542.692 247.815 542.328 247.738 542.056 247.914C541.784 248.091 541.707 248.454 541.883 248.726C542.06 248.998 542.423 249.075 542.695 248.899Z" fill="white"/>
<path opacity="0.11" d="M578.132 267.907C578.404 267.731 578.482 267.367 578.305 267.096C578.129 266.824 577.765 266.746 577.493 266.923C577.221 267.099 577.144 267.463 577.32 267.735C577.497 268.007 577.86 268.084 578.132 267.907Z" fill="white"/>
<path opacity="0.11" d="M682.585 172.113C682.857 171.937 682.934 171.573 682.758 171.302C682.581 171.03 682.218 170.952 681.946 171.129C681.674 171.305 681.596 171.669 681.773 171.941C681.949 172.213 682.313 172.29 682.585 172.113Z" fill="white"/>
<path opacity="0.11" d="M763.734 169.86C764.006 169.684 764.083 169.32 763.907 169.048C763.73 168.776 763.367 168.699 763.095 168.875C762.823 169.052 762.745 169.415 762.922 169.687C763.098 169.959 763.462 170.037 763.734 169.86Z" fill="white"/>
<path opacity="0.11" d="M855.125 103.552C855.397 103.375 855.474 103.012 855.298 102.74C855.121 102.468 854.758 102.391 854.486 102.567C854.214 102.744 854.136 103.107 854.313 103.379C854.489 103.651 854.853 103.728 855.125 103.552Z" fill="white"/>
<path opacity="0.3" d="M595.843 218.606C596.115 218.43 596.192 218.066 596.016 217.794C595.839 217.522 595.476 217.445 595.204 217.621C594.932 217.798 594.854 218.161 595.031 218.433C595.207 218.705 595.571 218.783 595.843 218.606Z" fill="white"/>
<path d="M691.882 118.475C692.154 118.298 692.231 117.935 692.055 117.663C691.878 117.391 691.515 117.314 691.243 117.49C690.971 117.666 690.893 118.03 691.07 118.302C691.246 118.574 691.61 118.651 691.882 118.475Z" fill="white"/>
<path d="M767.109 68.2571C767.381 68.0806 767.458 67.7171 767.282 67.4451C767.105 67.1732 766.742 67.0958 766.47 67.2723C766.198 67.4487 766.12 67.8123 766.297 68.0842C766.473 68.3561 766.837 68.4336 767.109 68.2571Z" fill="white"/>
<path d="M687.796 185.537C688.068 185.361 688.145 184.997 687.969 184.725C687.792 184.453 687.429 184.376 687.157 184.553C686.885 184.729 686.807 185.093 686.984 185.364C687.16 185.636 687.524 185.714 687.796 185.537Z" fill="white"/>
<path opacity="0.3" d="M653.312 207.916C653.584 207.74 653.661 207.376 653.485 207.104C653.308 206.832 652.945 206.755 652.673 206.931C652.401 207.108 652.323 207.471 652.5 207.743C652.676 208.015 653.04 208.093 653.312 207.916Z" fill="white"/>
<path opacity="0.11" d="M593.101 203.586C593.373 203.409 593.45 203.046 593.274 202.774C593.097 202.502 592.734 202.424 592.462 202.601C592.19 202.777 592.112 203.141 592.289 203.413C592.465 203.685 592.829 203.762 593.101 203.586Z" fill="white"/>
<path opacity="0.3" d="M708.429 124.542C708.701 124.366 708.778 124.002 708.602 123.73C708.425 123.458 708.062 123.381 707.79 123.557C707.518 123.734 707.44 124.097 707.617 124.369C707.793 124.641 708.157 124.719 708.429 124.542Z" fill="white"/>
<path opacity="0.3" d="M702.25 189.462C702.522 189.285 702.599 188.922 702.423 188.65C702.246 188.378 701.883 188.3 701.611 188.477C701.339 188.653 701.261 189.017 701.438 189.289C701.614 189.561 701.978 189.638 702.25 189.462Z" fill="white"/>
<path opacity="0.3" d="M645.835 233.071C646.107 232.894 646.184 232.531 646.008 232.259C645.831 231.987 645.468 231.909 645.196 232.086C644.924 232.262 644.846 232.626 645.023 232.898C645.199 233.17 645.563 233.247 645.835 233.071Z" fill="white"/>
<path opacity="0.3" d="M610.132 209.337C610.404 209.161 610.481 208.797 610.305 208.525C610.128 208.253 609.765 208.176 609.493 208.353C609.221 208.529 609.143 208.893 609.32 209.165C609.496 209.436 609.86 209.514 610.132 209.337Z" fill="white"/>
<path opacity="0.3" d="M915.585 9.00947C915.857 8.83299 915.934 8.46948 915.758 8.19753C915.581 7.92559 915.218 7.84819 914.946 8.02467C914.674 8.20115 914.596 8.56469 914.773 8.83664C914.949 9.10858 915.313 9.18595 915.585 9.00947Z" fill="white"/>
<path opacity="0.11" d="M823.164 40.2805C823.436 40.104 823.513 39.7405 823.337 39.4685C823.16 39.1966 822.797 39.1192 822.525 39.2957C822.253 39.4722 822.175 39.8357 822.352 40.1076C822.528 40.3796 822.892 40.457 823.164 40.2805Z" fill="white"/>
<path opacity="0.11" d="M916.031 38.821C916.303 38.6445 916.38 38.281 916.204 38.0091C916.027 37.7372 915.664 37.6597 915.392 37.8362C915.12 38.0127 915.042 38.3762 915.219 38.6482C915.395 38.9201 915.759 38.9975 916.031 38.821Z" fill="white"/>
<path opacity="0.3" d="M794.272 124.141C794.816 123.788 794.971 123.06 794.618 122.516C794.265 121.972 793.537 121.817 792.993 122.17C792.448 122.523 792.293 123.251 792.647 123.795C793 124.34 793.728 124.494 794.272 124.141Z" fill="white"/>
<path opacity="0.11" d="M813.749 90.4996C814.293 90.1463 814.448 89.4187 814.095 88.8743C813.742 88.33 813.014 88.1751 812.47 88.5283C811.925 88.8816 811.77 89.6093 812.124 90.1536C812.477 90.698 813.205 90.8529 813.749 90.4996Z" fill="white"/>
<path d="M802.316 73.4169C802.724 73.152 802.84 72.6065 802.575 72.1983C802.31 71.7902 801.765 71.674 801.357 71.9389C800.949 72.2037 800.832 72.7493 801.097 73.1575C801.362 73.5656 801.908 73.6818 802.316 73.4169Z" fill="white"/>
<path d="M801.894 147.202C802.302 146.937 802.418 146.391 802.153 145.983C801.888 145.575 801.343 145.459 800.935 145.724C800.527 145.989 800.41 146.534 800.675 146.942C800.94 147.351 801.486 147.467 801.894 147.202Z" fill="white"/>
<path d="M971.839 50.9159C972.247 50.6511 972.363 50.1055 972.098 49.6973C971.833 49.2892 971.288 49.173 970.88 49.4379C970.472 49.7028 970.355 50.2484 970.62 50.6565C970.885 51.0647 971.431 51.1808 971.839 50.9159Z" fill="white"/>
<path d="M646.683 250.023C647.091 249.758 647.207 249.213 646.942 248.805C646.677 248.397 646.132 248.28 645.724 248.545C645.316 248.81 645.199 249.356 645.464 249.764C645.729 250.172 646.275 250.288 646.683 250.023Z" fill="white"/>
<path d="M573.816 281.211C574.224 280.946 574.34 280.401 574.075 279.993C573.81 279.585 573.264 279.468 572.856 279.733C572.448 279.998 572.332 280.544 572.597 280.952C572.862 281.36 573.407 281.476 573.816 281.211Z" fill="white"/>
<path d="M552.652 266.941C553.06 266.676 553.176 266.131 552.912 265.723C552.647 265.315 552.101 265.198 551.693 265.463C551.285 265.728 551.169 266.274 551.433 266.682C551.698 267.09 552.244 267.206 552.652 266.941Z" fill="white"/>
<path d="M785.066 98.6147C785.474 98.3498 785.59 97.8042 785.325 97.3961C785.06 96.9879 784.515 96.8718 784.107 97.1366C783.699 97.4015 783.582 97.9471 783.847 98.3552C784.112 98.7634 784.658 98.8795 785.066 98.6147Z" fill="white"/>
<path d="M723.003 190.696C723.411 190.431 723.527 189.885 723.262 189.477C722.997 189.069 722.452 188.953 722.044 189.218C721.636 189.483 721.519 190.028 721.784 190.436C722.049 190.844 722.595 190.961 723.003 190.696Z" fill="white"/>
<path d="M860.894 131.317C861.302 131.052 861.418 130.506 861.153 130.098C860.888 129.69 860.343 129.574 859.935 129.839C859.527 130.103 859.41 130.649 859.675 131.057C859.94 131.465 860.486 131.581 860.894 131.317Z" fill="white"/>
<path d="M969.698 13.0976C970.107 12.8327 970.223 12.2871 969.958 11.879C969.693 11.4708 969.147 11.3547 968.739 11.6195C968.331 11.8844 968.215 12.43 968.48 12.8381C968.745 13.2463 969.29 13.3624 969.698 13.0976Z" fill="white"/>
<path opacity="0.3" d="M843.272 47.5333C843.816 47.18 843.971 46.4523 843.618 45.908C843.265 45.3636 842.537 45.2087 841.993 45.562C841.448 45.9153 841.293 46.6429 841.647 47.1873C842 47.7316 842.728 47.8865 843.272 47.5333Z" fill="white"/>
<path d="M820.577 12.5587C821.121 12.2054 821.276 11.4778 820.923 10.9334C820.57 10.3891 819.842 10.2342 819.298 10.5874C818.753 10.9407 818.598 11.6683 818.952 12.2127C819.305 12.757 820.032 12.912 820.577 12.5587Z" fill="white"/>
<path d="M875.683 41.9076C876.091 41.6428 876.207 41.0972 875.942 40.689C875.677 40.2809 875.132 40.1647 874.724 40.4296C874.316 40.6945 874.199 41.24 874.464 41.6482C874.729 42.0563 875.275 42.1725 875.683 41.9076Z" fill="white"/>
<path opacity="0.3" d="M887.108 7.19004C887.652 6.83678 887.807 6.10912 887.454 5.56477C887.101 5.02042 886.373 4.8655 885.829 5.21876C885.284 5.57203 885.129 6.29969 885.483 6.84404C885.836 7.38839 886.564 7.54331 887.108 7.19004Z" fill="white"/>
<path opacity="0.3" d="M958.578 10.5167C959.122 10.1634 959.277 9.43578 958.924 8.89142C958.57 8.34707 957.843 8.19216 957.298 8.54542C956.754 8.89869 956.599 9.62634 956.952 10.1707C957.306 10.715 958.033 10.87 958.578 10.5167Z" fill="white"/>
<path opacity="0.3" d="M901.577 48.9054C902.121 48.5521 902.276 47.8244 901.923 47.2801C901.57 46.7357 900.842 46.5808 900.298 46.9341C899.753 47.2874 899.598 48.015 899.952 48.5594C900.305 49.1037 901.033 49.2586 901.577 48.9054Z" fill="white"/>
<path opacity="0.3" d="M624.241 240.785C624.785 240.431 624.94 239.704 624.587 239.159C624.234 238.615 623.506 238.46 622.962 238.813C622.417 239.167 622.262 239.894 622.616 240.439C622.969 240.983 623.697 241.138 624.241 240.785Z" fill="white"/>
<path opacity="0.3" d="M566.749 239.588C567.293 239.234 567.448 238.507 567.095 237.962C566.742 237.418 566.014 237.263 565.47 237.616C564.925 237.97 564.77 238.697 565.124 239.242C565.477 239.786 566.204 239.941 566.749 239.588Z" fill="white"/>
<path opacity="0.11" d="M928.788 8.84532C929.332 8.49206 929.487 7.7644 929.134 7.22004C928.781 6.67569 928.053 6.52077 927.509 6.87404C926.964 7.2273 926.809 7.95496 927.163 8.49931C927.516 9.04367 928.244 9.19858 928.788 8.84532Z" fill="white"/>
<path opacity="0.3" d="M626.327 177.122C626.871 176.769 627.026 176.041 626.673 175.497C626.32 174.952 625.592 174.797 625.048 175.151C624.503 175.504 624.348 176.232 624.702 176.776C625.055 177.32 625.783 177.475 626.327 177.122Z" fill="white"/>
<path opacity="0.11" d="M606.632 175.901C607.176 175.548 607.331 174.82 606.978 174.276C606.625 173.732 605.897 173.577 605.353 173.93C604.808 174.283 604.653 175.011 605.007 175.555C605.36 176.1 606.088 176.254 606.632 175.901Z" fill="white"/>
<path opacity="0.3" d="M623.155 209.985C623.699 209.632 623.854 208.905 623.501 208.36C623.148 207.816 622.42 207.661 621.876 208.014C621.331 208.367 621.176 209.095 621.53 209.639C621.883 210.184 622.611 210.339 623.155 209.985Z" fill="white"/>
<path d="M653.62 189.513C654.028 189.248 654.144 188.702 653.879 188.294C653.614 187.886 653.069 187.77 652.661 188.035C652.252 188.3 652.136 188.845 652.401 189.253C652.666 189.662 653.212 189.778 653.62 189.513Z" fill="white"/>
</g>
</g>
<mask id="path-167-inside-1_1_2270" fill="white">
<path d="M-568 1095.2C-568 656.021 -211.979 300 227.195 300H908.805C1347.98 300 1704 656.021 1704 1095.2C1704 1534.37 1347.98 1890.39 908.805 1890.39H227.195C-211.979 1890.39 -568 1534.37 -568 1095.2Z"/>
</mask>
<path d="M-568 1095.2C-568 655.469 -211.531 299 228.195 299H907.805C1347.53 299 1704 655.469 1704 1095.2C1704 656.573 1347.98 301 908.805 301H227.195C-211.979 301 -568 656.573 -568 1095.2ZM1704 1890.39H-568H1704ZM-568 1890.39V300V1890.39ZM1704 300V1890.39V300Z" fill="#4DCFD3" fill-opacity="0.4" mask="url(#path-167-inside-1_1_2270)"/>
</g>
<defs>
<radialGradient id="paint0_radial_1_2270" cx="0" cy="0" r="1" gradientUnits="userSpaceOnUse" gradientTransform="translate(568 300) rotate(27.8416) scale(642.358 530.545)">
<stop stop-color="#006F73"/>
<stop offset="0.7" stop-opacity="0"/>
</radialGradient>
<radialGradient id="paint1_radial_1_2270" cx="0" cy="0" r="1" gradientUnits="userSpaceOnUse" gradientTransform="translate(568 300) rotate(39.9732) scale(568.934 560.198)">
<stop/>
<stop offset="1" stop-opacity="0"/>
</radialGradient>
<clipPath id="clip0_1_2270">
<rect width="1136" height="600" fill="white"/>
</clipPath>
<clipPath id="clip1_1_2270">
<rect width="872" height="731" fill="white" transform="translate(132 -65.5)"/>
</clipPath>
</defs>
</svg>
