<svg width="25" height="25" viewBox="0 0 25 25" fill="none" xmlns="http://www.w3.org/2000/svg">
<path d="M23.1503 0H1.84466C1.83799 0 1.83049 0 1.82215 0C0.822719 0 0.0116698 0.803548 0 1.79965V23.1987C0.0116698 24.1956 0.822719 25 1.82215 25C1.83049 25 1.83799 25 1.84633 25H23.1478C23.1545 25 23.1628 25 23.1712 25C24.1714 25 24.9842 24.1973 25 23.2004V23.1987V1.80131C24.9842 0.803548 24.1714 0 23.1703 0C23.162 0 23.1545 0 23.1462 0H23.1503ZM7.41448 21.304H3.70182V9.375H7.41448V21.304ZM5.55898 7.7429C4.37117 7.7429 3.40924 6.78014 3.40924 5.59316C3.40924 4.40617 4.372 3.44342 5.55898 3.44342C6.74597 3.44342 7.70872 4.40534 7.70872 5.59232C7.70872 5.59316 7.70872 5.59399 7.70872 5.59566C7.70872 6.78181 6.7468 7.74373 5.56065 7.74373C5.55982 7.74373 5.55898 7.74373 5.55815 7.74373L5.55898 7.7429ZM21.2982 21.304H17.5964V15.5033C17.5964 14.1196 17.568 12.34 15.6675 12.34C13.737 12.34 13.4428 13.8454 13.4428 15.4016V21.3048H9.74093V9.37583H13.2969V11.0021H13.3452C14.0354 9.83929 15.2841 9.07242 16.712 9.07242C16.7628 9.07242 16.8128 9.07325 16.8628 9.07492H16.8553C20.6063 9.07492 21.2998 11.5439 21.2998 14.7573V21.3048L21.2982 21.304Z" fill="#98A2B3"/>
</svg>
